<!-- icon666.com - MILLIONS vector ICONS FREE --><svg viewBox="-40 0 512 512" xmlns="http://www.w3.org/2000/svg"><path d="m423.003906 256c0 114.324219-92.675781 207-207 207-114.320312 0-207-92.675781-207-207s92.679688-207 207-207c114.324219 0 207 92.675781 207 207zm0 0" fill="#f0c48a" style="fill: rgb(26, 234, 137);"></path><path d="m426.148438 506.136719-22.359376-87.089844c-6.476562-25.21875-26.285156-44.84375-51.5625-51.085937l-92.097656-22.738282h-88.246094l-92.097656 22.738282c-25.28125 6.242187-45.085937 25.867187-51.5625 51.085937l-22.359375 87.089844zm0 0" fill="#d3e6f8" style="fill: rgb(174, 221, 244);"></path><path d="m403.789062 419.046875c-6.015624-23.4375-23.550781-42.03125-46.285156-49.554687l41.71875 136.644531h26.925782zm0 0" fill="#a4cff2"></path><path d="m216.003906 392.296875c50.320313 0 95.03125-10.792969 123.359375-27.511719l-79.234375-19.566406h-88.246094l-79.234374 19.566406c28.328124 16.71875 73.039062 27.511719 123.355468 27.511719zm0 0" fill="#fff"></path><path d="m171.882812 269.367188h88.246094v75.851562h-88.246094zm0 0" fill="#a4cff2"></path><path d="m231.058594 269.367188h29.070312v75.851562h-29.070312zm0 0" fill="#7babf1" style="fill: rgb(124, 170, 238);"></path><g fill="#4c4372"><path d="m260.128906 351.082031h-88.246094c-3.238281 0-5.863281-2.625-5.863281-5.863281v-75.851562c0-3.238282 2.625-5.863282 5.863281-5.863282h88.246094c3.238282 0 5.863282 2.625 5.863282 5.863282v75.851562c0 3.238281-2.625 5.863281-5.863282 5.863281zm-82.382812-11.726562h76.519531v-64.125h-76.519531zm0 0" fill="#4c4372"></path><path d="m216.003906 398.160156c-49.789062 0-95.835937-10.324218-126.335937-28.328125-2.054688-1.210937-3.167969-3.542969-2.824219-5.898437.347656-2.355469 2.082031-4.269532 4.398438-4.839844l79.234374-19.566406c.460938-.113282.933594-.171875 1.40625-.171875h88.242188c.472656 0 .949219.058593 1.40625.171875l79.238281 19.566406c2.3125.570312 4.050781 2.484375 4.394531 4.839844.34375 2.355468-.769531 4.6875-2.820312 5.898437-30.5 18.003907-76.550781 28.328125-126.339844 28.328125zm-106.726562-31.441406c28.0625 12.476562 66.652344 19.714844 106.726562 19.714844 40.078125 0 78.664063-7.238282 106.730469-19.714844l-63.320313-15.636719h-86.816406zm0 0" fill="#4c4372"></path><path d="m426.148438 512h-420.285157c-1.8125 0-3.523437-.839844-4.632812-2.269531-1.109375-1.433594-1.496094-3.296875-1.046875-5.050781l22.363281-87.089844c7.023437-27.355469 28.417969-48.550782 55.832031-55.320313l92.097656-22.742187c.460938-.113282.933594-.171875 1.40625-.171875h88.246094c.472656 0 .945313.058593 1.40625.171875l92.097656 22.742187c27.417969 6.769531 48.8125 27.964844 55.835938 55.320313l22.359375 87.089844c.449219 1.753906.0625 3.617187-1.046875 5.050781-1.109375 1.429687-2.820312 2.269531-4.632812 2.269531zm-412.726563-11.726562h405.167969l-20.480469-79.769532c-5.949219-23.164062-24.070313-41.117187-47.289063-46.851562l-91.40625-22.570313h-86.816406l-91.40625 22.570313c-23.222656 5.734375-41.34375 23.6875-47.289062 46.851562zm0 0" fill="#4c4372"></path><path d="m76.046875 512c-.332031 0-.664063-.027344-1.003906-.085938-3.1875-.550781-5.332031-3.582031-4.78125-6.773437l9.855469-57.179687c.546874-3.191407 3.578124-5.332032 6.769531-4.78125 3.191406.546874 5.332031 3.582031 4.785156 6.769531l-9.855469 57.183593c-.492187 2.851563-2.96875 4.867188-5.769531 4.867188zm0 0" fill="#4c4372"></path><path d="m355.964844 512c-2.800782 0-5.277344-2.015625-5.769532-4.867188l-9.855468-57.183593c-.546875-3.1875 1.59375-6.222657 4.785156-6.769531 3.195312-.558594 6.222656 1.589843 6.773438 4.78125l9.851562 57.179687c.550781 3.191406-1.589844 6.222656-4.78125 6.773437-.339844.058594-.671875.085938-1.003906.085938zm0 0" fill="#4c4372"></path></g><path d="m331.617188 138.730469c0 80.378906-51.761719 158.207031-115.613282 158.207031-63.847656 0-115.609375-77.828125-115.609375-158.207031 0-80.378907 51.761719-132.867188 115.609375-132.867188 63.851563 0 115.613282 52.488281 115.613282 132.867188zm0 0" fill="#d3e6f8" style="fill: rgb(174, 221, 244);"></path><path d="m269.515625 19.589844c26.039063 23.160156 42.675781 59.753906 42.675781 105.316406 0 80.378906-51.761718 158.207031-115.613281 158.207031-14.375 0-28.132813-3.957031-40.828125-10.984375 17.546875 15.5 38.179688 24.804688 60.253906 24.804688 63.851563 0 115.613282-77.828125 115.613282-158.203125 0-56.070313-25.191407-98.5625-62.101563-119.140625zm0 0" fill="#a4cff2"></path><path d="m285.339844 118.699219c0 38.289062-31.042969 69.332031-69.335938 69.332031-38.289062 0-69.332031-31.042969-69.332031-69.332031 0-38.292969 31.042969-69.335938 69.332031-69.335938 38.292969 0 69.335938 31.042969 69.335938 69.335938zm0 0" fill="#fd919e"></path><path d="m216.003906 49.363281c-38.289062 0-69.332031 31.042969-69.332031 69.335938h69.332031zm0 0" fill="#7babf1" style="fill: rgb(124, 170, 238);"></path><path d="m285.339844 118.699219h-69.335938v69.332031c38.292969 0 69.335938-31.042969 69.335938-69.332031zm0 0" fill="#7babf1" style="fill: rgb(124, 170, 238);"></path><path d="m216.003906 193.894531c-41.460937 0-75.195312-33.734375-75.195312-75.195312 0-41.464844 33.734375-75.195313 75.195312-75.195313 41.464844 0 75.195313 33.730469 75.195313 75.195313.003906 41.460937-33.730469 75.195312-75.195313 75.195312zm0-138.667969c-34.996094 0-63.46875 28.472657-63.46875 63.472657 0 34.996093 28.472656 63.46875 63.46875 63.46875 35 0 63.472656-28.472657 63.472656-63.46875 0-35-28.472656-63.472657-63.472656-63.472657zm0 0" fill="#4c4372"></path><path d="m216.003906 302.800781c-32.28125 0-63.011718-18.269531-86.53125-51.433593-22.207031-31.316407-34.941406-72.371094-34.941406-112.636719 0-39.550781 12.5625-75.242188 35.375-100.503907 22.257812-24.652343 52.835938-38.226562 86.097656-38.226562 33.265625 0 63.84375 13.574219 86.101563 38.226562 22.8125 25.261719 35.375 60.953126 35.375 100.503907 0 40.265625-12.738281 81.320312-34.941407 112.636719-23.519531 33.164062-54.25 51.433593-86.535156 51.433593zm0-291.074219c-29.902344 0-57.390625 12.199219-77.398437 34.359376-20.859375 23.101562-32.351563 56.003906-32.351563 92.644531 0 37.890625 11.949219 76.472656 32.78125 105.855469 21.261719 29.976562 48.59375 46.488281 76.96875 46.488281s55.710938-16.511719 76.96875-46.488281c20.832032-29.382813 32.78125-67.964844 32.78125-105.855469 0-36.640625-11.488281-69.542969-32.351562-92.644531-20.003906-22.160157-47.492188-34.359376-77.398438-34.359376zm0 0" fill="#4c4372"></path><path d="m216.003906 124.558594h-69.332031c-3.238281 0-5.863281-2.625-5.863281-5.863282 0-41.460937 33.734375-75.195312 75.195312-75.195312 3.238282 0 5.863282 2.625 5.863282 5.863281v69.332031c0 3.238282-2.625 5.863282-5.863282 5.863282zm-63.199218-11.722656h57.339843v-57.339844c-30.332031 2.789062-54.550781 27.007812-57.339843 57.339844zm0 0" fill="#4c4372"></path><path d="m216.003906 193.894531c-3.238281 0-5.863281-2.625-5.863281-5.863281v-69.335938c0-3.234374 2.625-5.859374 5.863281-5.859374h69.335938c3.238281 0 5.863281 2.625 5.863281 5.859374 0 41.464844-33.734375 75.199219-75.199219 75.199219zm5.863282-69.335937v57.339844c30.332031-2.789063 54.550781-27.007813 57.339843-57.339844zm0 0" fill="#4c4372"></path></svg>